<svg height="40" viewBox="0 0 512 512" width="40" xmlns="http://www.w3.org/2000/svg"><g><g><g><g><g><g><g><g><g><g><g><circle cx="256" cy="256" fill="#2864f0" r="256"/></g></g></g></g></g></g></g></g></g></g><path d="m262.859 511.91c133.192-3.504 241.043-108.738 248.705-240.855l-153.647-153.647-273.285 196.963 99.893 99.893-11.337 7.974z" fill="#27488f"/><g><g><path d="m367.242 340.797c48.476 0 87.773-39.297 87.773-87.773 0-44.071-32.48-80.555-74.808-86.822-11.436-55.171-60.313-96.635-118.875-96.635-55.014 0-101.481 36.592-116.39 86.765-48.958 2.259-87.957 42.666-87.957 92.183 0 50.966 41.316 92.283 92.283 92.283h217.974z" fill="#fff"/></g></g><g><g><path d="m380.207 166.202c-11.436-55.171-60.313-96.635-118.875-96.635-1.924 0-3.835.056-5.737.144v271.086h111.647c48.476 0 87.773-39.297 87.773-87.773 0-44.071-32.48-80.555-74.808-86.822z" fill="#e9edf5"/></g></g><g><g><path d="m264.017 350.365v40.669h37.07c-12.462 14.205-30.707 22.876-50.776 22.876-27.724 0-51.962-16.549-62.287-41.375h-42.684c5.67 22.811 18.855 43.455 37.28 58.251 19.106 15.344 43.146 23.793 67.692 23.793s48.585-8.45 67.692-23.793c3.99-3.204 7.735-6.682 11.212-10.397v35.843h40.669v-105.867z" fill="#ff9500"/></g><g><path d="m264.017 350.365v40.669h37.07c-11.358 12.946-27.525 21.272-45.492 22.65v40.752c22.692-1.12 44.675-9.41 62.408-23.65 3.99-3.204 7.735-6.682 11.212-10.397v35.843h40.669v-105.867z" fill="#fe6a16"/></g><g><path d="m318.003 247.108c-19.106-15.343-43.146-23.793-67.692-23.793s-48.586 8.45-67.692 23.793c-4.23 3.396-8.184 7.101-11.835 11.069v-36.826h-40.669v105.867h105.867v-40.669h-36.172c12.455-14.02 30.58-22.564 50.501-22.564 25.144 0 47.415 13.616 59.046 34.669h44.033c-6.431-20.135-18.785-38.215-35.387-51.546z" fill="#ff9500"/></g><g><path d="m318.003 247.108c-17.733-14.24-39.716-22.529-62.408-23.65v40.736c22.953 1.76 42.953 14.894 53.762 34.459h44.033c-6.431-20.134-18.785-38.214-35.387-51.545z" fill="#fe6a16"/></g></g></g></svg>