<svg version="1.1" xmlns="http://www.w3.org/2000/svg" viewBox="0 0 372.188 372.188" width="12px" height="12px">
<path style="fill:#53AADF;" d="M130.585,169.98c-66.63,0-120.5-19.53-120.5-43.65v82.72c0,24.12,53.955,43.65,120.585,43.65
	c14.271,0.026,28.528-0.916,42.672-2.82l77.743-62.97v-60.58C251.085,150.45,197.225,169.98,130.585,169.98z"/>
<path style="fill:#00ACEA;" d="M251.255,43.665v82.72c0,24.12-53.99,43.65-120.63,43.65s-120.63-19.53-120.63-43.65v-82.72
	c0,24.11,54.01,43.66,120.63,43.66S251.255,67.775,251.255,43.665z"/>
<ellipse style="fill:#D4E1F4;" cx="130.625" cy="43.66" rx="120.63" ry="43.66"/>
<path style="fill:#00ACEA;" d="M173.405,249.88c-14.165,1.904-28.443,2.846-42.735,2.82c-66.63,0-120.585-19.53-120.585-43.65v83.29
	c0,24.12,53.955,43.66,120.585,43.66c18.927,0.082,37.819-1.615,56.428-5.07L173.405,249.88z"/>
<g>
	<path style="fill:#D4E1F4;" d="M151.085,137.095h-40c-5.523,0-10-4.477-10-10s4.477-10,10-10h40c5.523,0,10,4.477,10,10
		S156.608,137.095,151.085,137.095z"/>
	<path style="fill:#D4E1F4;" d="M151.085,219.095h-40c-5.523,0-10-4.477-10-10s4.477-10,10-10h40c5.523,0,10,4.477,10,10
		S156.608,219.095,151.085,219.095z"/>
	<path style="fill:#D4E1F4;" d="M151.085,303.095h-40c-5.523,0-10-4.477-10-10c0-5.523,4.477-10,10-10h40c5.523,0,10,4.477,10,10
		C161.085,298.618,156.608,303.095,151.085,303.095z"/>
</g>
<path style="fill:#D4E1F4;" d="M251.255,180.965c52.49-8.144,101.644,27.805,109.788,80.295
	c8.144,52.49-27.805,101.644-80.295,109.788c-36.311,5.634-72.658-9.914-93.663-40.064h-0.01
	c-30.367-43.574-19.661-103.516,23.913-133.883C223.006,188.726,236.779,183.207,251.255,180.965L251.255,180.965z"/>
<path style="fill:#00ACEA;" d="M304.795,277.897c-3.731-4.03-10.022-4.272-14.051-0.541c-0.012,0.011-0.025,0.023-0.037,0.034
	l-14.622,13.65V237.9c0-5.523-4.477-10-10-10s-10,4.477-10,10v53.14l-14.7-13.646c-4.08-3.732-10.413-3.451-14.145,0.629
	c-3.68,4.022-3.465,10.25,0.483,14.009l31.464,29.3c3.839,3.572,9.785,3.572,13.624,0l31.479-29.3
	c4.043-3.763,4.27-10.09,0.507-14.133C304.796,277.898,304.795,277.898,304.795,277.897L304.795,277.897z"/>
</svg>
