<svg version="1.1" xmlns="http://www.w3.org/2000/svg" viewBox="0 0 399.748 399.748" width="12px" height="12px">
<path style="fill:#53AADF;" d="M9.404,136.462l183.902,78.367c2.09,1.045,4.18,1.045,6.269,1.045c2.09,0,4.18-0.522,6.269-1.045
	l183.902-78.367c5.747-2.612,9.404-8.359,9.404-14.629s-3.657-12.016-9.404-14.629l-183.902-78.89c-4.18-1.567-8.359-1.567-12.539,0
	L9.404,107.205C3.657,109.817,0,115.564,0,121.833S3.657,133.85,9.404,136.462z"/>
<path style="fill:#9AA7B0;" d="M377.208,263.939l-177.633,76.278L21.943,263.939c-7.837-3.657-17.241,0.522-20.376,8.359
	c-3.657,7.837,0.522,17.241,8.359,20.375l183.902,78.89c2.09,1.045,4.18,1.045,6.269,1.045c2.09,0,4.18-0.522,6.269-1.045
	l183.902-78.89c7.837-3.657,11.494-12.539,8.359-20.376C394.449,264.462,385.045,260.805,377.208,263.939z"/>
<path style="fill:#D4E1F4;" d="M9.404,214.829l183.902,78.367c2.09,1.045,4.18,1.045,6.269,1.045c2.09,0,4.18-0.522,6.269-1.045
	l183.902-78.367c7.837-3.135,11.494-12.539,8.359-20.376c-3.657-7.837-12.539-11.494-20.376-8.359l-178.155,75.233L21.943,185.572
	c-7.837-3.135-17.241,0.522-20.376,8.359C-2.09,201.768,1.567,211.172,9.404,214.829z"/>
</svg>
