<svg width="12px" height="12px" version="1.1" viewBox="0 0 361.5 361.5" xmlns="http://www.w3.org/2000/svg">
  <path d="m4.702 191.7 137.4 137.4c6.269 6.269 16.2 6.269 21.94 0 6.269-6.269 6.269-16.2 0-21.94l-126.4-126.4 126.4-126.4c6.269-6.269 6.269-16.2 0-21.94-3.135-3.135-7.314-4.702-10.97-4.702s-7.837 1.567-10.97 4.702l-137.4 137.4c-6.27 5.747-6.27 15.67-.001 21.94z" fill="#9aa7b0"/>
  <path d="m334.9 329.1c6.269 6.269 16.2 6.269 21.94 0 6.269-6.269 6.269-16.2 0-21.94l-126.4-126.4 126.4-126.4c6.269-6.269 6.269-16.2 0-21.94-3.135-3.135-7.314-4.702-10.97-4.702-4.18 0-7.837 1.567-10.97 4.702l-137.4 137.4c-3.135 3.135-4.702 6.792-4.702 10.97 0 4.18 1.567 8.359 4.702 10.97z" fill="#40b6e0"/>
</svg>
