<svg version="1.1" xmlns="http://www.w3.org/2000/svg" viewBox="0 0 432.588 432.588" width="12px" height="12px">
<path style="fill:#40b6e0;" d="M216.294,168.229c-26.645,0-48.065,21.42-48.065,48.065s21.42,48.065,48.065,48.065
	s48.065-21.42,48.065-48.065S242.939,168.229,216.294,168.229z"/>
<g>
	<path style="fill:#9AA7B0;" d="M287.869,128.522c-6.269,6.269-6.269,16.196,0,21.943c17.763,17.763,27.167,40.751,27.167,65.829
		s-9.404,48.065-27.167,65.829c-6.269,6.269-6.269,16.196,0,21.943c3.135,3.135,7.314,4.702,10.971,4.702s7.837-1.567,10.971-4.702
		c23.51-23.51,36.571-54.857,36.571-87.771s-13.061-64.261-36.571-87.771C303.543,122.253,294.139,122.253,287.869,128.522z"/>
	<path style="fill:#9AA7B0;" d="M144.718,150.465c6.269-6.269,6.269-16.196,0-21.943c-6.269-6.269-16.196-6.269-21.943,0
		c-48.588,48.588-48.588,127.478,0,175.543c3.135,3.135,7.314,4.702,10.971,4.702c4.18,0,7.837-1.567,10.971-4.702
		c6.269-6.269,6.269-16.196,0-21.943C108.669,245.551,108.669,187.037,144.718,150.465z"/>
	<path style="fill:#9AA7B0;" d="M375.118,77.322c-6.269-6.269-16.196-6.269-21.943,0c-6.269,6.269-6.269,16.196,0,21.943
		c64.261,64.784,64.261,169.273,0,234.057c-6.269,6.269-6.269,16.196,0,21.943c3.135,3.135,7.314,4.702,10.971,4.702
		s7.837-1.567,10.971-4.702c37.094-37.094,57.469-86.204,57.469-138.971S412.212,114.416,375.118,77.322z"/>
	<path style="fill:#9AA7B0;" d="M79.412,77.322c-6.269-6.269-16.196-6.269-21.943,0C20.376,114.416,0,163.527,0,216.294
		s20.376,101.878,57.469,138.971c3.135,3.135,7.314,4.702,10.971,4.702c3.657,0,7.837-1.567,10.971-4.702
		c6.269-6.269,6.269-16.196,0-21.943c-64.261-64.784-64.261-169.273,0-234.057C85.682,92.996,85.682,83.592,79.412,77.322z"/>
</g>
</svg>
