<svg version="1.1" xmlns="http://www.w3.org/2000/svg" viewBox="0 0 495.492 495.492" width="12px" height="12px">
    <path style="fill:#9AA7B0;" d="M429.036,124.709c0-54.335-43.886-98.22-98.22-98.22h-1.045c-53.812,0-97.698,43.886-97.698,98.22
	V370.26c0,37.094-29.78,67.396-66.873,67.396c-17.763,0-34.482-6.792-47.543-19.853c-12.539-12.016-19.331-28.735-19.331-47.02
	v-62.694H66.979v62.694c0,27.167,10.449,51.722,28.735,70.008c18.808,18.286,43.886,28.212,69.486,28.212
	c54.335,0,98.22-44.408,98.22-98.743V124.709c0-37.094,29.78-66.873,66.351-66.873h1.045c37.094,0,66.874,29.78,66.874,66.873
	v68.441h31.347V124.709z"/>
    <g>
        <path style="fill:#40b6e0;" d="M148.481,313.313c5.747,0,10.971-3.135,14.106-8.359c2.612-5.225,2.09-11.494-1.045-16.196
		l-66.351-94.563c-3.135-4.18-7.837-6.792-13.061-6.792s-9.927,2.612-13.061,6.792L2.717,288.758
		c-3.135,4.702-3.657,10.971-1.045,16.196c2.612,5.224,7.837,8.359,14.106,8.359h51.2h31.347H148.481z"/>
        <path style="fill:#40b6e0;" d="M493.819,196.285c-2.612-5.225-7.837-8.359-14.106-8.359h-50.678h-31.347h-50.678
		c-5.747,0-10.971,3.135-14.106,8.359c-2.612,5.224-2.09,11.494,1.045,16.196l66.351,95.086c3.135,4.18,7.837,6.792,13.061,6.792
		s9.927-2.612,13.061-6.792l66.351-95.086C495.909,207.779,496.432,201.509,493.819,196.285z"/>
    </g>
</svg>
