<svg version="1.1" width="12" height="12" xmlns="http://www.w3.org/2000/svg" 	 viewBox="0 0 447.216 447.216">
<path style="fill:#40B6E0;" d="M416.914,144.196c-13.584-24.555-39.706-39.706-68.441-39.706h-0.522
	C338.025,44.408,286.302,0,224.131,0S110.237,44.408,100.31,104.49h-0.522c-29.257,0-55.902,15.673-68.441,40.229
	c-15.151,28.735-15.151,60.082,0.522,86.204C47.02,256,74.71,271.673,103.967,271.673h241.371c29.257,0,56.947-15.673,72.098-40.751
	C432.065,204.8,432.588,173.453,416.914,144.196z"/>
<path style="fill:#9AA7B0;" d="M406.988,295.706H40.229c-17.763,0-31.347,13.584-31.347,31.347v88.816
	c0,17.763,13.584,31.347,31.347,31.347h366.759c17.763,0,31.347-13.584,31.347-31.347v-88.816
	C438.335,309.29,424.751,295.706,406.988,295.706z"/>
<g>
	<path style="fill:#D4E1F4;" d="M362.58,355.265h-200.62c-8.882,0-15.673,6.792-15.673,15.673s6.792,15.673,15.673,15.673h200.62
		c8.882,0,15.673-6.792,15.673-15.673S371.461,355.265,362.58,355.265z"/>
	<path style="fill:#D4E1F4;" d="M93.518,340.637c-16.718,0-30.302,13.584-30.302,30.302c0,17.241,13.061,30.302,30.302,30.302
		s30.302-13.061,30.302-30.302C123.82,354.22,110.237,340.637,93.518,340.637z"/>
</g>
</svg>
