<svg version="1.1" width="12" height="12" viewBox="0 0 481.7 481.7" xmlns="http://www.w3.org/2000/svg">
  <path d="m224.6 435.9h-171.4c-8.882 0-15.67 6.792-15.67 15.67 0 8.882 6.792 15.67 15.67 15.67h374.1c8.882 0 15.67-6.792 15.67-15.67 0-8.882-6.792-15.67-15.67-15.67h-171.4v-72.62h-31.35v72.62z" fill="#3a2c51"/>
  <path d="m259.3 396.6c68.56-3.088 121.1-24.71 121.1-50.03v-96.36c0 27.8-62.38 50.65-139.6 50.65s-139.6-22.85-139.6-50.65v96.36c0 25.32 52.5 46.94 121.1 50.03 6.177 0 12.35.6171 18.53.6171s12.35 0 18.53-.6171z" fill="#D4E1F4" stroke-width="1.182"/>
  <g transform="matrix(1.182 0 0 1.182 -44.03 8.66)" fill="#40b6e0">
    <path d="m240.8 247.1c65.31 0 118.1-19.33 118.1-42.84v-80.46c0 23.51-52.77 42.84-118.1 42.84s-118.1-19.33-118.1-42.84v80.46c-.001 23.51 52.77 42.84 118.1 42.84z"/>
    <path d="m240.8 85.68c65.31 0 118.1-19.33 118.1-42.84s-52.77-42.84-118.1-42.84-118.1 19.33-118.1 42.84 52.77 42.84 118.1 42.84z"/>
  </g>
  <path d="m240.7 205.7c77.21 0 139.6-22.85 139.6-50.65v-95.74c0 27.8-62.38 50.65-139.6 50.65s-139.6-22.85-139.6-50.65v95.74c0 27.8 62.39 50.65 139.6 50.65z" fill="#D4E1F4" stroke-width="1.182"/>
</svg>
