<svg version="1.1" xmlns="http://www.w3.org/2000/svg" width="12" height="12"
	 viewBox="0 0 430.498 430.498">
<g>
	<path style="fill:#9aa7b0;" d="M199.576,392.359H28.212c-8.882,0-15.673,6.792-15.673,15.673c0,8.882,6.792,15.673,15.673,15.673
		h374.073c8.882,0,15.673-6.792,15.673-15.673c0-8.882-6.792-15.673-15.673-15.673H230.922v-72.62h-31.347V392.359z"/>
	<rect x="199.576" y="142.106" style="fill:#9aa7b0;" width="31.347" height="42.318"/>
</g>
<g>
	<path style="fill:#3592C4;" d="M414.824,152.555c8.882,0,15.673-6.792,15.673-15.673V22.465c0-8.882-6.792-15.673-15.673-15.673
		H15.673C6.792,6.792,0,13.584,0,22.465v114.416c0,8.882,6.792,15.673,15.673,15.673h183.902h31.347H414.824z"/>
	<path style="fill:#3592C4;" d="M15.673,179.2C6.792,179.2,0,185.992,0,194.873V309.29c0,8.882,6.792,15.673,15.673,15.673h183.902
		h31.347h183.902c8.882,0,15.673-6.792,15.673-15.673V194.873c0-8.882-6.792-15.673-15.673-15.673H230.922h-31.347H15.673z"/>
</g>
<g>
	<path style="fill:#D4E1F4;" d="M286.302,95.608h42.841c8.882,0,15.673-6.792,15.673-15.673s-6.792-15.673-15.673-15.673h-42.841
		c-8.882,0-15.673,6.792-15.673,15.673C270.629,88.816,277.42,95.608,286.302,95.608z"/>
	<path style="fill:#D4E1F4;" d="M286.302,268.016h42.841c8.882,0,15.673-6.792,15.673-15.673c0-8.882-6.792-15.673-15.673-15.673
		h-42.841c-8.882,0-15.673,6.792-15.673,15.673C270.629,261.224,277.42,268.016,286.302,268.016z"/>
</g>
</svg>
