<svg version="1.1" xmlns="http://www.w3.org/2000/svg" viewBox="0 0 361.535 361.535" width="12" height="12">
    <path style="fill:#9AA7B0;" d="M356.833,169.796L219.429,32.392c-6.269-6.269-16.196-6.269-21.943,0
	c-6.269,6.269-6.269,16.196,0,21.943l126.433,126.433L197.486,307.2c-6.269,6.269-6.269,16.196,0,21.943
	c3.135,3.135,7.314,4.702,10.971,4.702s7.837-1.567,10.971-4.702l137.404-137.404C363.102,185.992,363.102,176.065,356.833,169.796z
	"/>
    <path style="fill:#40b6e0;" d="M26.645,32.392c-6.269-6.269-16.196-6.269-21.943,0c-6.269,6.269-6.269,16.196,0,21.943
	l126.433,126.433L4.702,307.2c-6.269,6.269-6.269,16.196,0,21.943c3.135,3.135,7.314,4.702,10.971,4.702
	c4.18,0,7.837-1.567,10.971-4.702l137.404-137.404c3.135-3.135,4.702-6.792,4.702-10.971c0-4.18-1.567-8.359-4.702-10.971
	L26.645,32.392z"/>
</svg>
