<svg version="1.1" xmlns="http://www.w3.org/2000/svg" width="12" height="12"
	 viewBox="0 0 458.71 458.71">
<path style="fill:#D4E1F4;" d="M279.249,182.335c4.18-6.269,3.657-14.629-2.09-19.853l-16.196-16.196
	c-5.224-5.224-13.584-6.269-19.853-2.09l-47.543,31.347l53.812,53.812L279.249,182.335z"/>
<g>
	<path style="fill:#9AA7B0;" d="M256.261,65.306c-8.882,0-15.673,6.792-15.673,15.673s6.792,15.673,15.673,15.673
		c45.453,0,82.547,37.094,82.547,82.547c0,8.882,6.792,15.673,15.673,15.673c8.882,0,15.673-6.792,15.673-15.673
		C370.155,116.506,318.955,65.306,256.261,65.306z"/>
	<path style="fill:#9AA7B0;" d="M264.098,0c-8.882,0-15.673,6.792-15.673,15.673s6.792,15.673,15.673,15.673
		c77.322,0,140.016,62.694,140.016,140.016c0,8.882,6.792,15.673,15.673,15.673c8.882,0,15.673-6.792,15.673-15.673
		C435.461,76.8,358.661,0,264.098,0z"/>
</g>
<path style="fill:#D4E1F4;" d="M154.906,346.384c-17.241-6.792-32.914-17.241-46.498-30.824l-0.522-0.522
	c-2.09-2.09-4.18-4.18-6.269-6.792L69.747,379.82h0.522h111.282l-2.09-25.6c-0.522,0-0.522,0-1.045,0
	C170.58,352.131,162.743,349.518,154.906,346.384z"/>
<path style="fill:#3A2C51;" d="M69.224,378.253H38.922c-8.882,0-15.673,6.792-15.673,15.673v49.11
	c0,8.882,6.792,15.673,15.673,15.673h170.841c8.882,0,15.673-6.792,15.673-15.673v-49.11c0-8.882-6.792-15.673-15.673-15.673h-27.69
	h-0.522H69.224L69.224,378.253z"/>
<path style="fill:#40b6e0;" d="M248.947,227.788l-53.812-53.812l0,0l-66.873-66.351c-6.269-6.269-16.196-6.269-21.943,0
	c-55.38,55.38-57.469,143.673-6.792,201.665c0,0,0,0.522,0.522,0.522c2.09,2.612,4.702,4.702,6.269,6.792l0.522,0.522
	c13.584,13.584,29.257,24.033,46.498,30.824c7.837,3.135,15.673,5.747,23.51,7.837c0.522,0,0.522,0,1.045,0
	c10.971,2.612,22.465,4.18,33.437,4.18c38.139,0,75.755-15.151,104.49-43.363c6.269-6.269,6.269-16.196,0-21.943L248.947,227.788z"
	/>
</svg>
