<svg width="12px" height="12px" version="1.1" viewBox="0 0 474.9 474.9" xmlns="http://www.w3.org/2000/svg">
  <path d="m3.134 110.8 180.2 156.2 170.3-155.2c2.09 2.612 3.135 5.747 3.135 8.359v235.1c0 8.882-6.792 15.67-15.67 15.67h-325.5c-8.882 0-15.67-6.792-15.67-15.67v-235.1c-.001-3.657 1.044-6.792 3.134-9.404z" fill="#40b6e0"/>
  <g transform="matrix(-1 0 0 1 474.9 0)" fill="#9aa7b0">
    <path d="m88.82 222h-27.17c-8.882 0-15.67 6.792-15.67 15.67 0 8.882 6.792 15.67 15.67 15.67h27.17c8.882 0 15.67-6.792 15.67-15.67.001-8.881-6.791-15.67-15.67-15.67z"/>
    <path d="m88.82 285.8h-73.14c-8.881 0-15.67 6.791-15.67 15.67s6.792 15.67 15.67 15.67h73.14c8.882 0 15.67-6.792 15.67-15.67.001-8.882-6.791-15.67-15.67-15.67z"/>
    <path d="m88.82 158.3h-73.14c-8.881 0-15.67 6.792-15.67 15.67s6.792 15.67 15.67 15.67h73.14c8.882 0 15.67-6.792 15.67-15.67s-6.791-15.67-15.67-15.67z"/>
  </g>
  <path d="m3.134 110.8c.522-1.045 1.567-1.567 2.09-2.612l.522-.522c.522-.522 1.567-1.045 2.612-1.567 0 0 .522 0 .522-.522 1.045-.522 1.567-.522 2.612-1.045h1.045c1.045 0 2.09-.522 3.657-.522h325c1.045 0 2.612 0 3.657.522.522 0 .522 0 1.045.522 1.045 0 1.567.522 2.612 1.045.522 0 .522.522 1.045.522 1.045.522 1.567 1.045 2.09 1.567l.522.522c1.045.522 1.567 1.567 2.09 2.612l-.522.522-170.3 155.2z" fill="#d4e1f4"/>
</svg>
