<svg version="1.1" xmlns="http://www.w3.org/2000/svg" viewBox="0 0 474.906 474.906" width="12" height="12">
<path style="fill:#40b6e0;" d="M471.771,110.759L291.527,266.971L121.208,111.804c-2.09,2.612-3.135,5.747-3.135,8.359v235.102
	c0,8.882,6.792,15.673,15.673,15.673h325.486c8.882,0,15.673-6.792,15.673-15.673V120.163
	C474.906,116.506,473.861,113.371,471.771,110.759z"/>
<g>
	<path style="fill:#9AA7B0;" d="M88.816,222.041H61.649c-8.882,0-15.673,6.792-15.673,15.673c0,8.882,6.792,15.673,15.673,15.673
		h27.167c8.882,0,15.673-6.792,15.673-15.673C104.49,228.833,97.698,222.041,88.816,222.041z"/>
	<path style="fill:#9AA7B0;" d="M88.816,285.78H15.673C6.792,285.78,0,292.571,0,301.453s6.792,15.673,15.673,15.673h73.143
		c8.882,0,15.673-6.792,15.673-15.673C104.49,292.571,97.698,285.78,88.816,285.78z"/>
	<path style="fill:#9AA7B0;" d="M88.816,158.302H15.673C6.792,158.302,0,165.094,0,173.976s6.792,15.673,15.673,15.673h73.143
		c8.882,0,15.673-6.792,15.673-15.673S97.698,158.302,88.816,158.302z"/>
</g>
<path style="fill:#D4E1F4;" d="M471.771,110.759c-0.522-1.045-1.567-1.567-2.09-2.612c0,0,0,0-0.522-0.522
	c-0.522-0.522-1.567-1.045-2.612-1.567c0,0-0.522,0-0.522-0.522c-1.045-0.522-1.567-0.522-2.612-1.045c-0.522,0-0.522,0-1.045,0
	c-1.045,0-2.09-0.522-3.657-0.522H133.747c-1.045,0-2.612,0-3.657,0.522c-0.522,0-0.522,0-1.045,0.522
	c-1.045,0-1.567,0.522-2.612,1.045c-0.522,0-0.522,0.522-1.045,0.522c-1.045,0.522-1.567,1.045-2.09,1.567l-0.522,0.522
	c-1.045,0.522-1.567,1.567-2.09,2.612l0.522,0.522l170.318,155.167L471.771,110.759z"/>
</svg>
