<svg width="12" height="12" version="1.1" viewBox="0 0 471.2 471.2" xmlns="http://www.w3.org/2000/svg">
  <g transform="matrix(-1 0 0 1 471.2 0)" fill="#9aa7b0">
    <path d="m157.7 455.6c0 8.882 6.792 15.67 15.67 15.67s15.67-6.792 15.67-15.67v-194.4h-31.35v194.4z"/>
    <path d="m189.1 15.67c0-8.881-6.792-15.67-15.67-15.67s-15.67 6.792-15.67 15.67v57.47h31.35v-57.47z"/>
  </g>
  <path d="m28.28 156.2 78.37-83.59c3.135-3.135 7.314-4.702 11.49-4.702h313.5c8.882 0 15.67 6.792 15.67 15.67v167.2c0 8.882-6.792 15.67-15.67 15.67h-313.5c-4.18 0-8.359-1.567-11.49-4.702l-78.37-83.59c-5.747-6.268-5.747-15.67 0-21.94z" fill="#3592C4"/>
</svg>
