<svg width="12" height="12" version="1.1" viewBox="0 0 496.6 496.6" xmlns="http://www.w3.org/2000/svg">
<path d="m184.3 285.4 71.05-27.69-1e-5 186.5-26.64-24.03c-3.135-2.612-6.792-4.18-10.45-4.18-4.18-1e-5-8.359 1.567-11.49 5.224-5.747 6.269-5.224 16.2 1.045 21.94l52.77 47.54c5.747 5.224 15.15 5.224 20.9 1e-5l52.24-47.54c6.269-5.747 6.792-15.67 1.045-21.94-5.747-6.27-15.67-6.792-21.94-1.045l-26.12 23.51v-230.4l70.01 27.17 1e-5 28.74c4.702-2.09 9.927-3.135 15.15-3.657l.522 1e-5 1.045-1e-5c5.224 0 9.927 1.045 14.63 2.612l1e-5-38.66c-1e-5-6.269-4.18-12.54-9.927-14.63l-91.43-35.53-1e-5-32.39c-5.225 1.045-10.45 1.567-15.67 1.567-5.224 0-10.45-.522-15.67-1.567l1e-5 76.8-92.47 36.05c-6.269 2.09-9.927 8.359-9.927 14.63v36.05h31.35c-.00078.00094-.001-25.08-.001-25.08z" fill="#9aa7b0"/>
<g transform="rotate(180 259.3 247.3)" fill="#40b6e0">
  <path d="m378.1 104.2h-53.81c-8.882 0-15.67 6.792-15.67 15.67v53.81c0 8.882 6.792 15.67 15.67 15.67h53.81c8.882 0 15.67-6.792 15.67-15.67v-53.81c0-8.882-6.792-15.67-15.67-15.67z"/>
  <path d="m146.2 234.3h.522c5.224 0 10.45-1.567 15.15-3.657 15.15-6.792 25.6-21.42 25.6-38.66 0-10.97-4.702-21.94-12.54-29.78s-18.81-12.54-29.78-12.54c-10.97 0-21.94 4.702-29.78 12.54s-12.54 18.81-12.54 29.78v1.045c0 17.76 11.49 32.91 27.69 38.66 4.702 1.567 9.404 2.612 14.63 2.612z"/>
</g>
<path d="m286.7 152.2c35.53-7.314 62.17-38.66 62.17-76.28-1e-5-42.84-35-77.84-77.85-77.84-42.84 1e-6-77.84 35-77.84 77.84-1e-5 37.62 26.64 68.96 62.17 76.28 5.224 1.045 10.45 1.567 15.67 1.567 5.224 0 10.45-.522 15.67-1.567z" fill="#389FD6"/>
</svg>
