<svg version="1.1" xmlns="http://www.w3.org/2000/svg" viewBox="0 0 365.714 365.714" width="12" height="12">
    <path style="fill:#3592C4;" d="M341.682,104.49H24.033c-8.882,0-15.673,6.792-15.673,15.673v229.878
	c0,8.882,6.792,15.673,15.673,15.673h317.649c8.882,0,15.673-6.792,15.673-15.673V120.163
	C357.355,111.282,350.563,104.49,341.682,104.49z"/>
    <g>
        <path style="fill:#9aa7b0;" d="M50.155,83.592h265.404c8.882,0,15.673-6.792,15.673-15.673s-6.792-15.673-15.673-15.673H50.155
		c-8.882,0-15.673,6.792-15.673,15.673S41.273,83.592,50.155,83.592z"/>
        <path style="fill:#9aa7b0;" d="M76.278,31.347h213.159c8.882,0,15.673-6.792,15.673-15.673S298.318,0,289.437,0H76.278
		c-8.882,0-15.673,6.792-15.673,15.673S67.396,31.347,76.278,31.347z"/>
    </g>
</svg>
